<svg width="82" height="25" viewBox="0 0 82 25" fill="none" xmlns="http://www.w3.org/2000/svg">
<path d="M77.0465 7.35152C75.9638 7.28619 74.9532 7.56619 74.1065 8.08885C69.9665 10.6555 65.0865 11.7649 60.2172 11.7649H42.9278C34.7012 11.7649 26.7399 8.74619 20.6532 3.21152C18.2452 1.02085 14.9678 -0.231147 11.4012 0.0355192C5.31852 0.490186 0.409186 5.46085 0.0251865 11.5462C-0.426813 18.7289 5.26385 24.6969 12.3492 24.6969C15.4585 24.6969 18.2972 23.5462 20.4679 21.6502C26.7292 16.1795 34.6185 12.9329 42.9305 12.9329H61.0572C65.7012 12.9329 70.2012 14.3142 74.2065 16.6675C74.9492 17.1035 75.8132 17.3542 76.7372 17.3542C79.5545 17.3542 81.8292 15.0262 81.7412 12.1875C81.6612 9.64352 79.5878 7.50485 77.0465 7.35152Z" fill="#CFAB5F"/>
<path d="M20.3695 12.3255C20.3695 16.8335 16.7148 20.4882 12.2055 20.4882C7.69745 20.4882 4.04279 16.8335 4.04279 12.3255C4.04279 7.81751 7.69745 4.16151 12.2055 4.16151C16.7148 4.16151 20.3695 7.81751 20.3695 12.3255Z" fill="white"/>
<path d="M79 12.0002C79 13.1046 78.1046 14 76.9998 14C75.8954 14 75 13.1046 75 12.0002C75 10.8957 75.8954 10 76.9998 10C78.1046 10 79 10.8957 79 12.0002Z" fill="white"/>
</svg>
